<?xml version="1.0" standalone="no"?>
<!DOCTYPE svg PUBLIC "-//W3C//DTD SVG 20010904//EN"
 "http://www.w3.org/TR/2001/REC-SVG-20010904/DTD/svg10.dtd">
<svg version="1.0" xmlns="http://www.w3.org/2000/svg"
 width="865.000000pt" height="1280.000000pt" viewBox="0 0 865.000000 1280.000000"
 preserveAspectRatio="xMidYMid meet">
<g transform="translate(0.000000,1280.000000) scale(0.100000,-0.100000)"
fill="#000000" stroke="none">
<path d="M3040 12694 c-394 -34 -593 -67 -862 -140 -981 -268 -1692 -849
-1998 -1636 -86 -219 -131 -421 -162 -726 -24 -230 -23 -241 19 -612 17 -154
19 -157 87 -206 25 -18 30 -30 42 -115 8 -52 22 -137 33 -189 13 -65 17 -117
14 -166 -11 -146 35 -290 122 -382 25 -27 45 -54 45 -59 0 -6 -18 -23 -40 -38
-221 -153 -168 -517 103 -712 29 -20 54 -38 56 -40 2 -1 -4 -27 -13 -57 -22
-68 -9 -125 37 -175 42 -44 84 -61 154 -61 118 1 193 65 201 171 4 49 8 59 21
57 16 -3 30 -84 46 -268 l6 -66 159 -138 c496 -433 914 -712 1350 -902 41 -18
76 -37 78 -42 2 -6 -73 -53 -165 -106 -119 -68 -210 -111 -308 -147 -76 -27
-148 -55 -159 -61 -12 -6 -179 -168 -371 -359 -208 -206 -355 -345 -361 -341
-7 4 -112 184 -234 401 l-223 394 21 42 c18 38 27 44 96 69 253 93 353 264
261 446 -55 109 -198 211 -333 239 -311 64 -539 -151 -613 -579 -18 -101 -15
-337 5 -490 69 -521 236 -864 645 -1330 105 -119 127 -139 145 -134 56 19 59
16 82 -96 26 -128 53 -206 109 -327 l44 -93 -125 -402 c-143 -461 -153 -517
-115 -620 39 -101 123 -154 235 -146 30 2 51 -1 51 -7 -1 -5 -42 -93 -92 -195
-128 -258 -175 -408 -140 -454 13 -18 16 -18 108 12 216 72 405 102 648 102
156 0 325 -14 350 -29 13 -9 231 -622 231 -652 0 -17 -4 -19 -23 -13 -56 18
-121 33 -126 29 -2 -3 1 -15 8 -27 7 -13 21 -39 32 -58 38 -70 18 -184 -57
-309 -54 -91 -139 -199 -299 -377 -295 -329 -333 -394 -267 -457 41 -39 127
-74 237 -97 129 -26 166 -25 343 5 241 42 474 132 622 240 34 26 88 83 134
143 42 55 88 108 103 117 36 24 79 21 145 -10 159 -73 291 -24 334 123 55 187
-19 477 -184 717 -19 28 -29 51 -23 53 6 2 47 -17 91 -42 165 -96 166 -96 377
-30 96 30 181 54 188 54 15 0 36 -62 37 -110 1 -15 -9 -42 -21 -59 -35 -49
-108 -210 -127 -281 -11 -41 -18 -103 -18 -165 -1 -85 3 -108 23 -153 76 -169
263 -174 429 -12 34 33 66 60 71 60 19 0 33 -33 71 -179 57 -220 69 -240 170
-291 252 -127 592 -172 834 -110 148 38 245 109 282 207 33 87 3 128 -220 302
-215 168 -340 332 -459 601 -27 61 -47 83 -92 97 l-30 10 -9 127 c-6 86 -6
130 1 137 29 29 485 38 693 15 164 -19 263 -39 376 -76 51 -16 96 -30 99 -30
3 0 -34 33 -82 74 -158 131 -433 428 -587 631 -28 37 -34 51 -23 53 8 2 677
-299 1486 -668 809 -368 1477 -670 1483 -670 15 0 282 485 275 498 -3 4 -734
340 -1625 746 l-1619 738 0 82 c0 52 -6 97 -16 125 l-17 44 129 251 c71 138
183 347 249 463 120 214 204 378 307 597 51 111 54 120 39 137 -9 10 -13 22
-9 28 12 21 -143 274 -314 513 -284 393 -589 706 -855 876 -74 47 -115 63
-392 150 -233 74 -310 102 -312 115 -3 13 17 26 80 54 124 55 370 182 478 248
256 155 461 315 786 613 l81 75 8 136 c10 188 17 236 34 236 10 0 14 -17 15
-70 1 -56 6 -77 24 -102 72 -102 249 -111 331 -17 59 66 61 149 6 224 -14 19
-25 35 -25 36 0 1 29 23 65 49 178 131 256 347 185 511 -22 52 -78 115 -124
139 -20 11 -36 24 -36 30 0 6 14 24 31 41 38 35 99 155 183 357 62 149 156
416 156 442 0 25 31 45 68 45 20 0 43 4 51 9 9 6 25 72 44 177 25 146 29 192
28 334 -2 284 -25 456 -102 758 -102 401 -177 555 -414 851 -146 184 -240 285
-364 395 -224 196 -413 323 -690 461 -412 205 -850 328 -1376 385 -101 11
-592 21 -675 14z m-2210 -6443 c0 -31 -49 -133 -63 -128 -20 6 -21 106 -1 128
23 25 64 25 64 0z m1700 -225 c-17 -22 -32 -9 -19 16 8 14 14 17 22 9 7 -7 6
-15 -3 -25z m2468 -1531 l163 -166 -47 -102 c-25 -56 -75 -176 -110 -267 -36
-91 -70 -169 -75 -175 -12 -12 -29 11 -29 43 0 16 -6 22 -23 22 -19 0 -29 11
-51 63 -27 61 -28 69 -42 410 -9 192 -13 356 -10 364 9 23 42 -6 224 -192z"/>
</g>
</svg>
