<?xml version="1.0" standalone="no"?>
<!DOCTYPE svg PUBLIC "-//W3C//DTD SVG 20010904//EN"
 "http://www.w3.org/TR/2001/REC-SVG-20010904/DTD/svg10.dtd">
<svg version="1.0" xmlns="http://www.w3.org/2000/svg"
 width="996.000000pt" height="1280.000000pt" viewBox="0 0 996.000000 1280.000000"
 preserveAspectRatio="xMidYMid meet">
<g transform="translate(0.000000,1280.000000) scale(0.100000,-0.100000)"
fill="#000000" stroke="none">
<path d="M6275 12788 c-22 -5 -78 -18 -125 -29 -102 -22 -276 -106 -371 -178
-90 -69 -223 -210 -287 -306 -66 -99 -141 -251 -182 -371 l-31 -91 -75 -42
c-194 -110 -405 -301 -564 -511 -139 -183 -235 -342 -456 -752 -177 -330 -247
-448 -331 -560 -90 -122 -214 -236 -307 -284 -42 -21 -78 -45 -81 -53 -7 -18
67 -95 195 -203 240 -202 537 -376 869 -508 79 -32 147 -64 151 -71 12 -22 16
-257 5 -267 -5 -5 -67 -12 -137 -16 l-128 -6 -34 30 c-68 60 -193 107 -371
142 -47 9 -148 13 -305 12 -204 0 -249 -3 -338 -22 -175 -38 -297 -94 -346
-159 -18 -25 -44 -188 -61 -390 -6 -73 -5 -87 16 -128 14 -27 19 -49 13 -54
-5 -4 -97 -86 -204 -182 -296 -263 -536 -485 -1342 -1237 -208 -194 -379 -352
-381 -352 -2 0 -16 11 -31 25 -15 14 -31 25 -37 25 -13 0 -359 -319 -359 -332
0 -6 18 -30 40 -54 22 -24 40 -49 40 -57 0 -7 -29 -25 -65 -41 -256 -111 -555
-442 -555 -614 0 -46 23 -71 92 -102 l47 -20 -6 -70 -6 -70 44 -42 c24 -24 53
-48 64 -55 19 -11 8 -24 -142 -170 -157 -153 -193 -199 -193 -243 0 -26 32
-90 57 -112 48 -44 137 -60 203 -37 18 7 137 104 264 216 127 113 237 207 244
210 7 3 36 -7 65 -23 43 -23 64 -28 120 -27 57 0 79 6 144 38 63 31 98 59 188
149 61 61 124 132 141 158 32 53 43 57 69 28 10 -11 26 -20 36 -20 20 0 375
267 384 288 3 8 -3 27 -12 44 l-18 30 45 39 c73 64 645 520 673 537 15 9 29
14 31 11 3 -3 -15 -66 -39 -140 -163 -481 -495 -1620 -495 -1695 0 -13 8 -25
18 -28 26 -8 691 -145 708 -146 0 0 4 -53 7 -117 8 -131 26 -223 58 -286 59
-117 326 -403 523 -559 59 -48 206 -153 325 -234 337 -230 379 -262 488 -368
105 -101 201 -226 189 -245 -4 -6 -15 -11 -25 -11 -10 0 -23 -6 -28 -12 -7 -8
-13 -276 -17 -708 -5 -524 -10 -698 -19 -706 -17 -16 -142 -66 -282 -112 -175
-59 -374 -105 -733 -171 -198 -36 -330 -65 -350 -76 -56 -33 -69 -104 -28
-152 l24 -28 848 -5 847 -5 17 -30 c9 -16 31 -40 50 -52 l33 -23 1278 0 c1207
0 1279 1 1287 18 5 9 13 105 16 212 4 107 11 321 16 475 43 1248 43 1228 24
1242 -10 7 -30 13 -45 13 -15 0 -30 4 -33 9 -3 4 21 67 54 139 179 396 223
574 241 987 5 121 7 276 3 345 -5 100 -4 128 7 136 8 6 57 19 109 28 243 43
454 97 650 168 99 36 304 131 313 145 7 12 -18 396 -53 797 -5 60 -7 113 -4
117 3 5 17 9 32 9 24 -1 37 -17 117 -153 85 -142 93 -152 125 -157 l34 -5 31
-130 c39 -162 99 -319 139 -362 42 -45 78 -54 146 -36 30 8 61 16 69 16 9 1
43 -62 97 -182 46 -101 91 -193 101 -204 22 -25 74 -47 109 -47 40 0 104 70
104 114 0 18 -16 90 -35 160 -19 71 -35 133 -35 140 0 7 14 25 31 42 18 16 42
52 55 80 12 28 34 64 48 78 23 26 46 99 46 150 0 13 14 41 31 62 17 22 38 52
46 68 23 44 52 138 53 167 0 31 -86 253 -141 363 -28 56 -38 88 -34 105 4 20
-13 57 -73 160 -72 122 -78 137 -68 162 9 25 7 32 -16 56 -42 44 -123 185
-303 523 -487 916 -573 1066 -708 1239 -97 123 -181 242 -334 471 -61 91 -133
195 -160 233 l-50 67 -7 108 c-4 59 -17 165 -31 236 -21 116 -27 132 -57 164
-89 94 -318 156 -625 169 -84 3 -153 9 -153 13 0 4 46 19 103 35 230 64 489
161 681 257 150 74 306 163 311 177 3 8 -4 29 -17 45 -114 151 -243 389 -321
591 -45 116 -132 369 -246 715 -49 151 -110 327 -134 390 l-44 114 18 86 c71
339 70 664 -2 930 -49 179 -175 386 -300 492 -157 133 -285 183 -545 213 -78
9 -166 20 -195 26 -80 15 -189 19 -234 7z m-474 -10469 c98 -78 184 -166 250
-253 l59 -79 -6 -696 c-3 -383 -7 -706 -10 -718 -3 -17 -27 -30 -111 -63 -223
-88 -384 -133 -397 -112 -3 6 -1 138 4 294 6 155 15 407 20 558 5 151 13 392
16 536 l7 261 -21 6 c-30 7 -28 21 19 123 23 49 52 113 65 142 12 28 27 52 31
52 5 0 38 -23 74 -51z"/>
</g>
</svg>
