<?xml version="1.0" standalone="no"?>
<!DOCTYPE svg PUBLIC "-//W3C//DTD SVG 20010904//EN"
 "http://www.w3.org/TR/2001/REC-SVG-20010904/DTD/svg10.dtd">
<svg version="1.0" xmlns="http://www.w3.org/2000/svg"
 width="844.000000pt" height="1280.000000pt" viewBox="0 0 844.000000 1280.000000"
 preserveAspectRatio="xMidYMid meet">
<g transform="translate(0.000000,1280.000000) scale(0.100000,-0.100000)"
fill="#000000" stroke="none">
<path d="M4119 12796 c-2 -3 -60 -10 -129 -16 -612 -55 -1138 -247 -1573 -573
-799 -601 -1061 -1531 -662 -2352 111 -229 234 -395 442 -595 143 -138 276
-241 446 -342 61 -38 119 -72 127 -77 26 -16 0 -29 -126 -66 -430 -124 -818
-288 -1144 -485 -371 -224 -709 -526 -832 -745 -265 -470 -475 -1034 -572
-1540 -36 -191 -53 -323 -76 -585 -23 -264 -25 -377 -10 -530 29 -294 50 -533
50 -573 0 -66 57 -131 268 -305 232 -191 534 -337 724 -350 58 -4 81 -9 87
-21 5 -9 11 -68 15 -131 25 -435 149 -1357 282 -2095 130 -724 247 -1170 311
-1189 29 -8 234 -44 408 -70 396 -61 817 -104 1235 -126 107 -5 290 -15 405
-21 294 -16 729 -5 1380 36 474 30 1355 121 1376 142 10 10 62 611 164 1915
36 458 72 923 81 1033 8 110 18 203 22 207 4 3 93 27 197 53 331 83 622 193
865 330 87 49 351 221 411 268 44 34 90 176 113 351 42 314 44 375 16 691 -47
536 -118 923 -265 1440 -147 519 -380 1124 -512 1332 -124 197 -342 417 -558
563 -310 210 -672 367 -1115 482 -68 18 -124 38 -124 43 1 6 51 44 112 85 417
281 700 622 858 1032 127 328 148 723 58 1072 -176 678 -770 1259 -1569 1532
-231 80 -468 132 -700 154 -66 6 -147 15 -181 21 -60 9 -297 13 -305 5z"/>
</g>
</svg>
